<svg viewBox="0 0 23 23" fill="none" xmlns="http://www.w3.org/2000/svg">
<path fill-rule="evenodd" clip-rule="evenodd" d="M13.2823 3.10374C10.0382 -0.137698 5.22953 -0.604321 2.56282 2.06526C-0.105272 4.73345 0.361333 9.5423 3.59988 12.7851C4.46386 13.6491 5.45937 14.3096 6.51027 14.7831C6.85503 12.7796 7.84363 10.8535 9.34452 9.27229C8.84745 9.09506 8.33792 8.94552 7.80624 8.80013C4.6577 7.93612 3.09312 5.30946 2.72759 2.23003C3.02991 2.59359 3.30517 2.97493 3.57962 3.35514C4.11211 4.09283 4.64154 4.8263 5.35968 5.41746C6.47683 6.33735 7.70308 6.69244 9.04462 7.08092C9.09641 7.09592 9.14838 7.11097 9.20052 7.1261C9.83604 7.31026 10.3885 7.58303 10.8953 7.9015C12.2272 6.9281 13.7295 6.28009 15.2802 6.01286C14.8081 4.96192 14.1463 3.96775 13.2823 3.10374ZM7.79655 15.553C8.00285 13.5467 8.97483 11.5846 10.5325 10.0269C13.7766 6.78548 18.5852 6.31748 21.2519 8.98844C23.92 11.6566 23.4548 16.4655 20.2121 19.7083C18.6545 21.266 16.6925 22.238 14.6862 22.4457C14.419 22.472 14.1546 22.4859 13.8956 22.4859C12.1705 22.4859 10.6294 21.8808 9.49405 20.7454C8.187 19.4397 7.58333 17.5953 7.79655 15.553ZM12.5415 17.1993C13.6049 16.3879 14.7555 16.0667 16.0071 15.7247C19.1557 14.8607 20.7189 12.234 21.0858 9.1546C20.786 9.51613 20.5128 9.89488 20.2403 10.2725C19.7062 11.0128 19.1753 11.7488 18.4537 12.342C17.3331 13.2634 16.104 13.6191 14.7565 14.0091L14.7565 14.0091L14.6129 14.0507C11.5322 14.9451 10.0091 17.5496 9.65743 20.5806C9.96091 20.216 10.2389 19.8375 10.5155 19.4609L10.5155 19.4609C11.1158 18.6435 11.7092 17.8354 12.5415 17.1993Z" fill="#0E8784"/>
</svg>
